#!OML:ASF H:\Swim 2\Project 1\Capture day 1\Session 1\male.ASF
:FULLY-SPECIFIED
:DEGREES
1336
root -0.081746 13.9866 6.5321 93.0695 2.84365 0.269621
lowerback -13.7715 0.922534 -2.84573
upperback -2.7254 1.52444 2.76771
thorax 4.6876 0.720623 4.80223
lowerneck -4.27532 -2.06958 -2.73456
upperneck 22.6179 -2.51925 0.560954
head 7.69476 -1.31655 0.458714
rclavicle 4.77083e-015 -8.94531e-016
rhumerus 87.9077 -6.11496 -29.9422
rradius 32.8628
rwrist -9.23252
rhand -53.1324 18.6765
rfingers 7.12502
rthumb -25.5926 -9.62394
lclavicle 4.77083e-015 -8.94531e-016
lhumerus -269.696 2.66391 -311.807
lradius 31.2119
lwrist 9.40212
lhand -45.2681 -45.1096
lfingers 7.12502
lthumb -18.0417 -15.9263
rfemur -47.6769 -4.03545 22.992
rtibia 51.4413
rfoot 11.1915 0.926019
rtoes 8.97257
lfemur -48.6437 -3.41571 -24.495
ltibia 48.8851
lfoot -3.27961 2.38919
ltoes -2.03631
1337
root -0.0840264 13.9951 6.52633 92.6085 2.82814 0.315688
lowerback -13.4621 0.993761 -2.9025
upperback -2.74273 1.62328 2.77375
thorax 4.48785 0.774938 4.84584
lowerneck -4.61555 -2.25187 -2.77387
upperneck 22.5624 -2.79918 0.794964
head 7.74652 -1.42889 0.516489
rclavicle -4.77083e-015 -1.0138e-014
rhumerus 87.7511 -6.33627 -29.9166
rradius 33.177
rwrist -9.03337
rhand -53.2132 18.2658
rfingers 7.12502
rthumb -25.67 -10.0235
lclavicle -4.77083e-015 -1.0138e-014
lhumerus -269.53 2.62043 -311.421
lradius 31.5379
lwrist 9.6362
lhand -45.251 -45.7148
lfingers 7.12502
lthumb -18.0252 -16.5301
rfemur -47.5423 -4.39018 23.1314
rtibia 52.8661
rfoot 11.4061 0.759671
rtoes 9.3932
lfemur -48.3856 -2.96041 -24.9467
ltibia 50.3438
lfoot -2.90512 1.8818
ltoes -0.938956
1338
root -0.0857477 14.0038 6.5217 92.1498 2.81368 0.360277
lowerback -13.1513 1.06574 -2.94872
upperback -2.76016 1.72118 2.78037
thorax 4.28736 0.829072 4.88293
lowerneck -4.9534 -2.4322 -2.83825
upperneck 22.4549 -3.07453 1.03278
head 7.78191 -1.54053 0.579538
rclavicle -1.19271e-014 -4.96962e-015
rhumerus 87.5894 -6.5451 -29.8606
rradius 33.4516
rwrist -8.89888
rhand -53.1775 18.2579
rfingers 7.12502
rthumb -25.6358 -10.0364
lclavicle -1.19271e-014 -4.96962e-015
lhumerus -269.385 2.58875 -311.098
lradius 31.8334
lwrist 9.94397
lhand -45.2571 -46.2811
lfingers 7.12502
lthumb -18.031 -17.0969
rfemur -47.3922 -4.76778 23.2755
rtibia 54.3038
rfoot 11.6863 0.493304
rtoes 10.0684
lfemur -48.1041 -2.54655 -25.3566
ltibia 51.8259
lfoot -2.57935 1.41683
ltoes -0.155467
1339
root -0.0870824 14.0126 6.51813 91.7042 2.79713 0.401221
lowerback -12.8487 1.12924 -2.98446
upperback -2.77944 1.80609 2.78584
thorax 4.09096 0.876813 4.91019
lowerneck -5.29494 -2.59224 -2.92462
upperneck 22.2869 -3.31217 1.23493
head 7.79786 -1.63944 0.637033
rclavicle -7.95139e-016 6.95746e-015
rhumerus 87.4602 -6.72558 -29.8218
rradius 33.677
rwrist -8.72163
rhand -53.1267 18.2686
rfingers 7.12502
rthumb -25.5871 -10.0326
lclavicle -7.95139e-016 6.95746e-015
lhumerus -269.277 2.62422 -310.906
lradius 32.1137
lwrist 10.3745
lhand -45.284 -46.8272
lfingers 7.12502
lthumb -18.0569 -17.6453
rfemur -47.2389 -5.15929 23.4178
rtibia 55.7465
rfoot 12.0155 0.156152
rtoes 10.8573
lfemur -47.8115 -2.16369 -25.7328
ltibia 53.3307
lfoot -2.32473 1.00528
ltoes 0.345493
1340
root -0.088081 14.0217 6.51515 91.2819 2.79154 0.441162
lowerback -12.5553 1.17518 -2.98581
upperback -2.80081 1.8627 2.78865
thorax 3.90153 0.910521 4.91031
lowerneck -5.65572 -2.7088 -3.02294
upperneck 22.0425 -3.47613 1.37576
head 7.79005 -1.7106 0.681827
rclavicle 2.54444e-014 3.20043e-014
rhumerus 87.3953 -6.87026 -29.8421
rradius 33.835
rwrist -8.48027
rhand -53.0772 18.2842
rfingers 7.12502
rthumb -25.5397 -10.0238
lclavicle 2.54444e-014 3.20043e-014
lhumerus -269.206 2.77847 -310.901
lradius 32.3824
lwrist 10.9508
lhand -45.3028 -47.2757
lfingers 7.12502
lthumb -18.075 -18.0955
rfemur -47.0926 -5.55887 23.5695
rtibia 57.1847
rfoot 12.394 -0.218775
rtoes 11.7094
lfemur -47.5233 -1.80513 -26.0668
ltibia 54.8591
lfoot -2.1572 0.65159
ltoes 0.531864
